{
    "asset" : {
        "generator" : "Khronos glTF Blender I/O v1.1.46",
        "version" : "2.0"
    },
    "extensionsUsed" : [
        "KHR_lights_punctual"
    ],
    "extensionsRequired" : [
        "KHR_lights_punctual"
    ],
    "extensions" : {
        "KHR_lights_punctual" : {
            "lights" : [
                {
                    "color" : [
                        1,
                        0.5883865356445312,
                        0.27731817960739136
                    ],
                    "intensity" : 20,
                    "type" : "directional",
                    "name" : "Area"
                }
            ]
        }
    },
    "scene" : 0,
    "scenes" : [
        {
            "name" : "Scene",
            "nodes" : [
                0,
                2,
                4,
                5,
                6
            ]
        }
    ],
    "nodes" : [
        {
            "mesh" : 0,
            "name" : "Sphere",
            "rotation" : [
                0,
                0.7262912392616272,
                0,
                0.6873871088027954
            ],
            "translation" : [
                4.538288116455078,
                2.6067070960998535,
                0.43272948265075684
            ]
        },
        {
            "extensions" : {
                "KHR_lights_punctual" : {
                    "light" : 0
                }
            },
            "name" : "Area_Orientation",
            "rotation" : [
                -0.7071067690849304,
                0,
                0,
                0.7071067690849304
            ]
        },
        {
            "children" : [
                1
            ],
            "name" : "Area",
            "rotation" : [
                0.4049472510814667,
                0.07587037235498428,
                0.31005945801734924,
                0.8568106889724731
            ],
            "scale" : [
                6.7261481285095215,
                6.7261481285095215,
                6.7261481285095215
            ],
            "translation" : [
                -6.916649341583252,
                9.117012977600098,
                12.869010925292969
            ]
        },
        {
            "camera" : 0,
            "name" : "Camera_Orientation",
            "rotation" : [
                -0.7071067690849304,
                0,
                0,
                0.7071067690849304
            ]
        },
        {
            "children" : [
                3
            ],
            "name" : "Camera",
            "rotation" : [
                0.8622018098831177,
                -0.006397999823093414,
                0.010852854698896408,
                0.5064082741737366
            ],
            "translation" : [
                1.7003616094589233,
                -3.4284887313842773,
                11.31545352935791
            ]
        },
        {
            "mesh" : 1,
            "name" : "Sphere.001",
            "translation" : [
                0.18821990489959717,
                1.3412501811981201,
                1.3944053649902344
            ]
        },
        {
            "mesh" : 2,
            "name" : "Cube",
            "rotation" : [
                0.6847858428955078,
                -0.6295319199562073,
                -0.14169561862945557,
                0.338644802570343
            ],
            "scale" : [
                0.7209267020225525,
                0.7209267020225525,
                0.7209267020225525
            ],
            "translation" : [
                2.214423418045044,
                1.7025121450424194,
                2.4081428050994873
            ]
        }
    ],
    "cameras" : [
        {
            "name" : "Camera",
            "perspective" : {
                "yfov" : 0.39959652046304894,
                "zfar" : 1000,
                "znear" : 0.10000000149011612
            },
            "type" : "perspective"
        }
    ],
    "materials" : [
        {
            "doubleSided" : true,
            "emissiveFactor" : [
                0,
                0,
                0
            ],
            "name" : "Material.002",
            "normalTexture" : {
                "index" : 0,
                "scale" : 1.1000003814697266,
                "texCoord" : 0
            },
            "pbrMetallicRoughness" : {
                "baseColorTexture" : {
                    "index" : 1,
                    "texCoord" : 0
                },
                "metallicRoughnessTexture" : {
                    "index" : 2,
                    "texCoord" : 0
                }
            }
        },
        {
            "doubleSided" : true,
            "emissiveFactor" : [
                0.004201758187264204,
                0.004201758187264204,
                0.004201758187264204
            ],
            "name" : "Material.004",
            "normalTexture" : {
                "index" : 3,
                "scale" : 2.799999713897705,
                "texCoord" : 0
            },
            "pbrMetallicRoughness" : {
                "baseColorTexture" : {
                    "index" : 4,
                    "texCoord" : 0
                },
                "metallicFactor" : 0,
                "metallicRoughnessTexture" : {
                    "index" : 5,
                    "texCoord" : 0
                }
            }
        }
    ],
    "meshes" : [
        {
            "name" : "Sphere",
            "primitives" : [
                {
                    "attributes" : {
                        "POSITION" : 0,
                        "NORMAL" : 1,
                        "TEXCOORD_0" : 2
                    },
                    "indices" : 3,
                    "material" : 0
                }
            ]
        },
        {
            "name" : "Sphere.004",
            "primitives" : [
                {
                    "attributes" : {
                        "POSITION" : 4,
                        "NORMAL" : 5,
                        "TEXCOORD_0" : 6
                    },
                    "indices" : 7,
                    "material" : 1
                }
            ]
        },
        {
            "name" : "Cube.001",
            "primitives" : [
                {
                    "attributes" : {
                        "POSITION" : 8,
                        "NORMAL" : 9,
                        "TEXCOORD_0" : 10
                    },
                    "indices" : 11,
                    "material" : 1
                }
            ]
        }
    ],
    "textures" : [
        {
            "source" : 0
        },
        {
            "source" : 1
        },
        {
            "source" : 2
        },
        {
            "source" : 3
        },
        {
            "source" : 4
        },
        {
            "source" : 5
        }
    ],
    "images" : [
        {
            "mimeType" : "image/png",
            "name" : "slate2-tiled-height",
            "uri" : "slate2-tiled-height.png"
        },
        {
            "mimeType" : "image/jpeg",
            "name" : "Marble13_COL_3K",
            "uri" : "Marble13_COL_3K.jpg"
        },
        {
            "mimeType" : "image/jpeg",
            "name" : "MetalCorrodedHeavy001_GLOSS_3K_SPECULAR-MetalCorrodedHeavy001_REFL_3K_SPECULAR",
            "uri" : "MetalCorrodedHeavy001_GLOSS_3K_SPECULAR-MetalCorrodedHeavy001_REFL_3K_SPECULAR.jpg"
        },
        {
            "mimeType" : "image/png",
            "name" : "wornstonework1Height",
            "uri" : "wornstonework1Height.png"
        },
        {
            "mimeType" : "image/jpeg",
            "name" : "SmudgesLarge001_OVERLAY_VAR2_6K",
            "uri" : "SmudgesLarge001_OVERLAY_VAR2_6K.jpg"
        },
        {
            "mimeType" : "image/jpeg",
            "name" : "Marble13_REFL_3K",
            "uri" : "Marble13_REFL_3K.jpg"
        }
    ],
    "accessors" : [
        {
            "bufferView" : 0,
            "componentType" : 5126,
            "count" : 559,
            "max" : [
                1.000000238418579,
                1,
                1.0000003576278687
            ],
            "min" : [
                -0.9999998211860657,
                -1,
                -1
            ],
            "type" : "VEC3"
        },
        {
            "bufferView" : 1,
            "componentType" : 5126,
            "count" : 559,
            "type" : "VEC3"
        },
        {
            "bufferView" : 2,
            "componentType" : 5126,
            "count" : 559,
            "type" : "VEC2"
        },
        {
            "bufferView" : 3,
            "componentType" : 5123,
            "count" : 2880,
            "type" : "SCALAR"
        },
        {
            "bufferView" : 4,
            "componentType" : 5126,
            "count" : 559,
            "max" : [
                1.000000238418579,
                1,
                1.0000003576278687
            ],
            "min" : [
                -0.9999998211860657,
                -1,
                -1
            ],
            "type" : "VEC3"
        },
        {
            "bufferView" : 5,
            "componentType" : 5126,
            "count" : 559,
            "type" : "VEC3"
        },
        {
            "bufferView" : 6,
            "componentType" : 5126,
            "count" : 559,
            "type" : "VEC2"
        },
        {
            "bufferView" : 7,
            "componentType" : 5123,
            "count" : 2880,
            "type" : "SCALAR"
        },
        {
            "bufferView" : 8,
            "componentType" : 5126,
            "count" : 24,
            "max" : [
                1,
                1,
                1
            ],
            "min" : [
                -1,
                -1,
                -1
            ],
            "type" : "VEC3"
        },
        {
            "bufferView" : 9,
            "componentType" : 5126,
            "count" : 24,
            "type" : "VEC3"
        },
        {
            "bufferView" : 10,
            "componentType" : 5126,
            "count" : 24,
            "type" : "VEC2"
        },
        {
            "bufferView" : 11,
            "componentType" : 5123,
            "count" : 36,
            "type" : "SCALAR"
        }
    ],
    "bufferViews" : [
        {
            "buffer" : 0,
            "byteLength" : 6708,
            "byteOffset" : 0
        },
        {
            "buffer" : 0,
            "byteLength" : 6708,
            "byteOffset" : 6708
        },
        {
            "buffer" : 0,
            "byteLength" : 4472,
            "byteOffset" : 13416
        },
        {
            "buffer" : 0,
            "byteLength" : 5760,
            "byteOffset" : 17888
        },
        {
            "buffer" : 0,
            "byteLength" : 6708,
            "byteOffset" : 23648
        },
        {
            "buffer" : 0,
            "byteLength" : 6708,
            "byteOffset" : 30356
        },
        {
            "buffer" : 0,
            "byteLength" : 4472,
            "byteOffset" : 37064
        },
        {
            "buffer" : 0,
            "byteLength" : 5760,
            "byteOffset" : 41536
        },
        {
            "buffer" : 0,
            "byteLength" : 288,
            "byteOffset" : 47296
        },
        {
            "buffer" : 0,
            "byteLength" : 288,
            "byteOffset" : 47584
        },
        {
            "buffer" : 0,
            "byteLength" : 192,
            "byteOffset" : 47872
        },
        {
            "buffer" : 0,
            "byteLength" : 72,
            "byteOffset" : 48064
        }
    ],
    "buffers" : [
        {
            "byteLength" : 48136,
            "uri" : "pruebasTexuresPBR.bin"
        }
    ]
}
